<svg width="30" height="30" fill="none" xmlns="http://www.w3.org/2000/svg"><path d="M29.25 15c0 7.87-6.38 14.25-14.25 14.25S.75 22.87.75 15 7.13.75 15 .75 29.25 7.13 29.25 15Z" stroke="#A71A0A" stroke-width="1.5"/><path d="M11.039 7.175a.628.628 0 0 0-.313.811c.034.085 1.021 1.087 3.577 3.631l3.534 3.518-3.534 3.515c-2.56 2.55-3.543 3.55-3.577 3.634a.823.823 0 0 0-.047.244c0 .451.457.755.861.567.179-.084 7.647-7.518 7.725-7.694a.657.657 0 0 0 0-.532c-.078-.176-7.546-7.61-7.725-7.694a.585.585 0 0 0-.501 0Z" fill="#A71A0A"/></svg>