<?xml version="1.0" encoding="utf-8"?><svg viewBox="0 0 43 44" xmlns="http://www.w3.org/2000/svg" xmlns:xlink="http://www.w3.org/1999/xlink"><style>:root>svg{display:none}:root>svg:target{display:block}</style><svg fill="none" viewBox="0 0 31 8" id="arrow" xmlns="http://www.w3.org/2000/svg"><path d="M30.354 4.354a.5.5 0 0 0 0-.708L27.172.464a.5.5 0 1 0-.707.708L29.293 4l-2.828 2.828a.5.5 0 1 0 .707.708l3.182-3.182ZM0 4.5h30v-1H0v1Z" fill="currentColor"/></svg><svg fill="none" viewBox="0 0 22 20" id="burger" xmlns="http://www.w3.org/2000/svg"><path stroke="#000" stroke-width="2" d="M0 1h22M0 10h22M0 19h22"/></svg><svg fill="none" viewBox="0 0 43 44" id="close" xmlns="http://www.w3.org/2000/svg"><path d="m10.724 11.276 21.213 21.213m-21.92-.472L31.23 10.804" opacity=".8" stroke="#000"/></svg><svg fill="none" viewBox="0 0 30 30" id="decor-arrow" xmlns="http://www.w3.org/2000/svg"><path d="M29.25 15c0 7.87-6.38 14.25-14.25 14.25S.75 22.87.75 15 7.13.75 15 .75 29.25 7.13 29.25 15Z" stroke="#A71A0A" stroke-width="1.5"/><path d="M11.039 7.175a.628.628 0 0 0-.313.811c.034.085 1.021 1.087 3.577 3.631l3.534 3.518-3.534 3.515c-2.56 2.55-3.543 3.55-3.577 3.634a.823.823 0 0 0-.047.244c0 .451.457.755.861.567.179-.084 7.647-7.518 7.725-7.694a.657.657 0 0 0 0-.532c-.078-.176-7.546-7.61-7.725-7.694a.585.585 0 0 0-.501 0Z" fill="#A71A0A"/></svg></svg>