<svg width="71" height="71" fill="none" xmlns="http://www.w3.org/2000/svg"><g clip-path="url(#a)" fill="#02361E"><path d="M33.004.153C18.638 1.179 6.296 10.803 1.803 24.517-.125 30.44-.444 37.123.915 43.266 3.106 53.07 9.541 61.64 18.43 66.563c7.862 4.354 17.43 5.519 26.18 3.189 12.232-3.259 21.883-12.91 25.142-25.141 3.245-12.19-.277-25.266-9.208-34.155C54.304 4.243 46.594.763 37.747.153c-2.316-.167-2.4-.167-4.743 0Zm10.165 20.592 3.286 3.398v13.271l.888.305a7.076 7.076 0 0 1 4.811 5.685c.514 3.287-1.553 6.546-4.811 7.627l-.888.305v.943c0 .527-.041 1.04-.083 1.165-.083.194-1.415.222-13.784.222-12.37 0-13.7-.028-13.784-.222-.111-.277-.111-35.61 0-35.888.083-.194 1.123-.222 10.58-.208l10.484.014 3.3 3.383Z"/><path d="M19.691 35.5v17.334h25.793v-1.373l-.651-.083c-1.18-.139-2.33-.5-3.107-.93-1.026-.582-2.19-1.816-2.69-2.842l-.416-.86h-8.75c-7.821-.014-8.778-.041-8.944-.236-.125-.152-.14-.277-.028-.443.125-.222.887-.236 8.764-.278l8.611-.027v-2.496l-8.611-.028c-7.877-.042-8.64-.056-8.764-.277-.111-.167-.097-.292.028-.444.166-.194 1.123-.222 8.889-.222h8.708l.153-.458c.083-.25.374-.776.637-1.192.264-.402.486-.763.486-.79 0-.028-4.174-.056-9.264-.056-9.928 0-9.887 0-9.679-.666l.097-.305H40.88l.777-.471c.777-.472 1.941-.832 3.176-.985l.651-.083V24.822l-3.148-.027-3.161-.042-.042-3.3-.028-3.287H19.691V35.5Zm7.322-15.087c.236.235.236 5.81 0 6.046-.18.18-5.56.25-5.99.083-.195-.07-.222-.486-.222-3.107 0-2.287.041-3.05.18-3.092.083-.041 1.442-.083 3.023-.083 2.039-.014 2.884.028 3.01.152Zm10.872 1.123c.07.097.097.263.07.374-.028.18-.694.208-4.799.25-4.645.027-5.144 0-5.144-.402 0-.056.11-.208.235-.347.222-.222.597-.222 4.896-.139 3.3.07 4.673.153 4.742.264Zm-.028 3.217a.578.578 0 0 1 .07.485c-.083.278-.167.278-4.84.278-3.508 0-4.784-.042-4.909-.167-.222-.222-.208-.319.056-.582.18-.194.818-.222 4.825-.222 3.87 0 4.66.028 4.798.208Zm6.393 3.897c.125.152.139.277.028.443-.125.222-1.068.236-11.69.236s-11.565-.014-11.69-.236c-.111-.166-.097-.29.028-.443.166-.194 1.359-.222 11.662-.222s11.496.027 11.662.222Zm0 3.466c.125.153.139.278.028.444-.125.222-1.068.236-11.69.236s-11.565-.014-11.69-.236c-.111-.166-.097-.291.028-.444.166-.194 1.359-.221 11.662-.221s11.496.027 11.662.221Zm.07 3.55c.208.68.402.666-11.732.666-12.134 0-11.94.014-11.732-.666l.097-.305h23.269l.097.305ZM31.02 49.59a.595.595 0 0 1-.055.458c-.124.194-.693.222-4.77.263-2.551.014-4.77 0-4.937-.041-.305-.07-.443-.583-.221-.805.041-.055 2.288-.097 4.992-.097 4.41 0 4.909.028 4.992.222Z"/><path d="M21.771 23.436v2.218H26.21V21.216H21.772v2.22ZM40.076 21.466v2.386h4.604l-1.387-1.498a113.975 113.975 0 0 0-2.302-2.385l-.915-.888v2.385ZM44.278 38.412c-1.844.264-3.689 1.678-4.52 3.425-.417.888-.445 1.026-.445 2.538 0 1.54.014 1.636.472 2.565 1.484 2.996 5.062 4.285 8.03 2.885 1.025-.472 2.357-1.817 2.842-2.83 1.137-2.426.652-5.13-1.29-6.974-.457-.444-1.165-.943-1.58-1.124-.666-.29-2.233-.651-2.65-.61-.069.014-.457.07-.86.125Zm2.233.472c.693.29 1.483 1.053 1.788 1.733.153.347.292 1.068.333 1.706.042.596.139 1.123.194 1.164.07.042.125 1.11.125 2.386 0 2.08-.028 2.357-.277 2.773-.486.804-1.151.998-3.453.998-2.357 0-2.94-.18-3.453-1.095-.277-.485-.305-.735-.305-2.76 0-1.802.041-2.246.208-2.385.152-.125.208-.457.208-1.165.014-1.608.596-2.62 1.872-3.217.804-.388 2.038-.444 2.76-.138Z"/><path d="M44.125 39.896c-.596.291-1.109.97-1.206 1.58l-.07.472.153-.416c.222-.596.93-1.29 1.484-1.47 1.04-.346 2.274.111 2.76 1.027.124.25.277.845.319 1.345.096.873.096.887.124.208.028-1.29-.471-2.302-1.386-2.774-.514-.277-1.61-.263-2.178.028Z"/><path d="M44.555 41.075c-.402.194-.735.929-.735 1.622v.569h2.774v-.624c0-1.387-.93-2.108-2.039-1.567ZM42.434 46.094c0 2.594-.111 2.497 2.69 2.552 2.15.042 2.163.042 2.51-.305.333-.333.346-.402.346-2.233v-1.872h-5.546v1.858Z"/></g><defs><clipPath id="a"><path fill="#fff" d="M0 0h71v71H0z"/></clipPath></defs></svg>