<svg width="71" height="71" fill="none" xmlns="http://www.w3.org/2000/svg"><g clip-path="url(#a)" fill="#02361E"><path d="M33.35.97c-13.312.777-25.127 9.403-30.077 21.966C-.236 31.797.222 42.35 4.479 50.823c2.884 5.783 7.738 11.038 13.202 14.311a34.68 34.68 0 0 0 27.04 3.717c8.349-2.288 15.92-8.057 20.413-15.532 6.629-11.01 6.601-24.905-.055-35.763-2.801-4.562-7.073-8.834-11.635-11.635-4.479-2.732-10.15-4.576-15.046-4.881-2.662-.152-3.286-.166-5.047-.07Zm10.664 12.287c.167.166.222.527.222 1.58 0 1.055-.055 1.415-.221 1.582-.25.263-.278.263-.625.083-.235-.139-.263-.305-.263-1.636 0-1.484.097-1.83.5-1.83.096 0 .276.096.387.221Zm-5.574 1.54c.305.374 1.359 2.26 1.359 2.454 0 .25-.291.499-.583.499-.263 0-.956-.97-1.511-2.122-.264-.527-.277-.665-.125-.846.236-.29.596-.277.86.014Zm11.177-.07c.277.277.194.54-.541 1.817-.638 1.095-.749 1.22-1.082 1.178-.707-.083-.513-.776.763-2.856.222-.333.596-.402.86-.139Zm-14.741 3.786c1.29.693 1.498.887 1.428 1.345-.069.499-.527.457-1.65-.18-1.179-.68-1.511-.93-1.511-1.18 0-.18.36-.61.513-.61.041 0 .596.278 1.22.625Zm10.872-.416c3.425.818 6.074 3.813 6.517 7.419.43 3.439-1.04 6.462-4.201 8.597-.472.32-.763.652-.985 1.137l-.319.694.541.527c.471.444.54.596.54 1.137 0 .333-.082.735-.193.873-.167.236-.167.305 0 .541.11.153.194.555.194.902 0 .527-.07.68-.555 1.137-.513.485-.555.582-.555 1.248 0 .555-.069.804-.305 1.054-.29.305-.36.319-2.773.319-2.455 0-2.482 0-2.815-.347-.277-.264-.347-.471-.347-1.04 0-.624-.055-.763-.471-1.165-.61-.569-.75-1.082-.472-1.83.167-.486.18-.638.028-.902-.374-.665-.07-1.803.555-2.094.208-.083.36-.25.36-.374-.014-.458-.652-1.345-1.317-1.817-1.151-.804-2.746-2.496-3.231-3.425-1.332-2.538-1.318-5.866.07-8.348.72-1.317 2.356-2.898 3.66-3.522.569-.278 1.373-.597 1.789-.707.998-.264 3.175-.264 4.285-.014Zm8.07-.07a.614.614 0 0 1 .264.486c0 .263-.222.457-1.234 1.026-1.304.749-1.553.818-1.817.5-.319-.39-.07-.694 1.179-1.415.693-.402 1.262-.735 1.29-.735.027 0 .166.069.319.138Zm-19.871 5.935c.097.61-.166.722-1.692.722-1.442 0-1.747-.098-1.747-.555 0-.485.305-.569 1.872-.527 1.47.042 1.525.055 1.567.36Zm22.742 0c.097.61-.166.722-1.692.722-1.442 0-1.747-.098-1.747-.555 0-.485.305-.569 1.872-.527 1.47.042 1.526.055 1.567.36Zm-38.731 4.036c.305.139.693.402.846.582.166.18 2.024 3.328 4.132 6.99 2.621 4.562 3.994 6.794 4.34 7.1 1.831 1.636 5.34 1.47 7.281-.347l.374-.347 1.151.36c2.247.708 4.05 2.164 4.701 3.8.32.777.32.957.375 6.088.041 4.756.027 5.311-.18 5.519-.209.194-1.04.222-8.876.222-7.682 0-8.666-.028-8.86-.222-.195-.18-.223-.901-.223-5.81V46.33l-4.076-7.072c-2.247-3.883-4.216-7.308-4.369-7.627-.527-1.012-.29-2.524.5-3.231.735-.666 1.955-.832 2.884-.402Zm14.644 3.37a4.546 4.546 0 0 1 2.19 2.19c.347.722.361.888.361 2.913 0 2.066-.014 2.177-.388 2.94-1.664 3.397-6.587 3.314-8.182-.14-.277-.581-.305-.887-.305-2.87 0-2.149.014-2.246.375-2.94a4.936 4.936 0 0 1 2.884-2.412c.666-.222 2.26-.056 3.065.319Z"/><path d="M41.602 19.22c-1.581.43-3.107 1.511-4.119 2.926-.901 1.276-1.303 2.44-1.387 4.063-.152 2.787.888 4.867 3.356 6.698 1.234.915 1.789 1.608 2.053 2.551l.152.597h3.966l.083-.389c.278-1.109.915-1.941 2.136-2.773 1.442-.97 2.593-2.51 3.078-4.119.347-1.109.402-3.05.111-4.09-.707-2.58-2.8-4.688-5.394-5.464-.943-.277-2.995-.277-4.035 0Zm1.664 1.622c.29.153.43.153.832-.014a2.026 2.026 0 0 1 2.51.874c.166.291.416.485.665.527 1.123.236 2.025 1.803 1.692 2.968-.097.346-.055.568.208 1.095.402.79.43 1.581.07 2.358-.25.54-.902 1.165-1.429 1.345-.125.041-.305.332-.388.624-.194.735-.624 1.262-1.304 1.567-.693.319-1.303.333-1.997.055-.471-.194-.582-.194-1.04 0-.596.25-1.178.264-1.72.056-.734-.278-1.566-1.276-1.566-1.9 0-.166-.167-.333-.43-.444-.652-.277-1.317-1.04-1.512-1.733-.18-.666-.027-1.65.347-2.177.125-.195.153-.527.111-1.082-.125-1.331.61-2.496 1.733-2.718.278-.055.472-.222.624-.555.403-.832 1.762-1.275 2.594-.846Z"/><path d="M41.754 22.132c-.305.388-.347.638-.166 1.096.29.693-.666 1.095-.985.416-.208-.458-.43-.444-.86.083-.651.776-.374 1.872.583 2.246.568.222.763.5.638.86-.139.347-.583.374-1.234.083l-.638-.277-.14.374c-.221.555-.027 1.207.459 1.623.36.305.54.36 1.192.333.596-.028.804.013.943.221.222.305.056.708-.36.832-.389.125-.347.444.124.916.444.43.888.499 1.47.236l.347-.153v-4.465c0-3.273-.042-4.493-.166-4.618-.292-.291-.902-.194-1.207.194ZM44.417 21.869c-.14.055-.18 1.109-.18 4.617 0 4.369.013 4.576.263 4.715.624.333 1.553-.055 1.803-.749.097-.235.041-.319-.278-.457-.291-.125-.402-.264-.402-.513 0-.458.18-.555 1.054-.513.832.027 1.303-.195 1.553-.763.208-.43.208-.957.028-1.304-.125-.235-.153-.235-.652.014-.624.32-.915.333-1.15.056-.264-.32-.098-.652.484-.957.763-.402 1.124-1.137.902-1.817-.153-.457-.596-.901-.902-.901-.083 0-.208.139-.277.305-.097.236-.25.319-.555.319h-.416l.042-.79c.028-.652-.014-.846-.236-1.068-.277-.278-.707-.347-1.081-.194ZM40.659 37.33c-.222.222-.208.458.055.722.18.18.638.221 2.885.221 2.898 0 3.203-.069 3.106-.707l-.042-.333-2.912-.041c-2.15-.028-2.968.014-3.092.139ZM40.659 39.55c-.222.221-.208.457.055.72.18.18.638.222 2.885.222 2.898 0 3.203-.07 3.106-.707l-.042-.333-2.912-.041c-2.15-.028-2.968.013-3.092.138ZM41.602 42.087v.485h4.021v-.97h-4.021v.485ZM15.864 29.315c-.54.541-.624 1.193-.25 1.928.14.25 2.094 3.675 4.369 7.613l4.146 7.17v10.829h11.648v-2.898c0-2.454.028-2.94.222-3.12.111-.125.291-.222.389-.222.443 0 .499.32.499 3.287v2.953H40.09l-.042-4.895-.041-4.88-.388-.777c-.624-1.276-2.08-2.386-3.8-2.899-.54-.166-.61-.152-.998.18-2.247 1.886-6.56 1.734-8.515-.305-.277-.277-2.233-3.522-4.368-7.224-2.829-4.895-3.994-6.795-4.285-6.962-.638-.402-1.248-.319-1.789.222Z"/><path d="M29.315 32.366c-.818.374-1.608 1.248-1.83 2.01-.25.805-.208 3.648.041 4.272.347.818.819 1.331 1.609 1.775 1.83.984 4.077.11 4.77-1.886.139-.388.208-1.123.208-2.191 0-1.317-.055-1.72-.29-2.233-.805-1.789-2.774-2.551-4.508-1.747Z"/></g><defs><clipPath id="a"><path fill="#fff" d="M0 0h71v71H0z"/></clipPath></defs></svg>