<svg width="71" height="71" fill="none" xmlns="http://www.w3.org/2000/svg"><g clip-path="url(#a)"><path d="M35.5 71C55.106 71 71 55.106 71 35.5S55.106 0 35.5 0 0 15.894 0 35.5 15.894 71 35.5 71Z" fill="#02361E"/><path fill-rule="evenodd" clip-rule="evenodd" d="M55.297 51.287H43.184a1.106 1.106 0 0 1-1.086-1.086v-6.014c0-.668.501-1.086 1.086-1.086h12.111c.669 0 1.17.418 1.17 1.086v6.014c0 .585-.501 1.086-1.17 1.086Zm-12.112-7.184c-.084 0-.084 0-.084.084v6.014s0 .084.084.084h12.111c.084 0 .084-.084.084-.084v-6.014c0-.084 0-.084-.084-.084H43.186Z" fill="#fff"/><path fill-rule="evenodd" clip-rule="evenodd" d="M54.044 44.187c-.335 0-.502-.167-.502-.501V41.514l.502-1.002c.334-.752.668-1.504 1.002-2.172v-.084c.668-1.503 1.17-2.756.418-4.093l-7.267-12.612c-.502-.92-1.588-1.003-2.34-.585-.751.418-.835 1.253-.334 2.088l3.926 6.85v.083c.251.25.334.668.334 1.002v5.18c0 .25-.25.5-.5.5-.251 0-.502-.25-.502-.5v-5.18c0-.5-.417-.835-.919-.835-.5 0-.919.334-.919.835v5.764c0 .167 0 .334-.166.418-2.256 1.92-1.504 5.93-1.42 6.264 0 0 .083.084.083.167 0 .25-.167.418-.418.502-.25 0-.5-.084-.584-.335-.167-.25-1.086-4.844 1.503-7.183v-5.597c0-1.002.835-1.837 1.838-1.92l-3.174-5.514c-.92-1.587-.25-2.84.752-3.424 1.169-.669 2.923-.502 3.758.918l7.267 12.613c1.003 1.755.335 3.342-.334 4.929l-.083.083c-.25.752-.669 1.504-1.003 2.255-.167.334-.25.585-.417.92v1.837c0 .334-.25.501-.502.501ZM49.282 48.781c-.918 0-1.67-.752-1.67-1.587 0-.919.752-1.67 1.67-1.67.836 0 1.587.751 1.587 1.67 0 .835-.751 1.587-1.587 1.587Zm0-2.255c-.334 0-.668.334-.668.668s.334.585.668.585a.57.57 0 0 0 .585-.585c0-.334-.25-.668-.585-.668ZM27.815 51.287H15.703c-.668 0-1.169-.501-1.169-1.086v-6.014c0-.668.501-1.086 1.17-1.086h12.111c.585 0 1.086.418 1.086 1.086v6.014c0 .585-.501 1.086-1.086 1.086Zm-12.112-7.184c-.083 0-.083 0-.083.084v6.014s0 .084.084.084h12.111c.084 0 .084-.084.084-.084v-6.014c0-.084 0-.084-.084-.084H15.703Z" fill="#fff"/><path fill-rule="evenodd" clip-rule="evenodd" d="M16.956 44.187c-.25 0-.5-.167-.5-.501v-1.838c-.168-.334-.251-.584-.418-.919-.335-.751-.752-1.503-1.003-2.255l-.083-.083c-.668-1.587-1.337-3.175-.334-4.929l7.267-12.613c.835-1.42 2.59-1.587 3.758-.918 1.003.584 1.671 1.837.752 3.424l-3.174 5.513c1.003.084 1.838.92 1.838 1.921v5.597c2.59 2.339 1.67 6.933 1.503 7.183-.083.251-.334.334-.584.334-.25-.083-.418-.25-.418-.5 0-.084.084-.168.084-.168.083-.334.835-4.343-1.42-6.264-.168-.084-.168-.251-.168-.418v-5.764c0-.5-.417-.835-.918-.835-.502 0-.92.334-.92.835v5.18c0 .25-.25.5-.5.5s-.502-.25-.502-.5v-5.18c0-.334.084-.751.335-1.002v-.083l3.926-6.85c.5-.835.417-1.67-.335-2.088-.751-.418-1.837-.334-2.338.585l-7.267 12.613c-.752 1.336-.251 2.589.417 4.093v.083c.334.668.668 1.42 1.002 2.172l.502 1.002V43.686c0 .334-.167.501-.502.501ZM21.718 48.781c-.836 0-1.587-.752-1.587-1.587 0-.919.751-1.67 1.587-1.67.919 0 1.67.751 1.67 1.67 0 .835-.752 1.587-1.67 1.587Zm0-2.255c-.334 0-.585.334-.585.668s.25.585.585.585c.334 0 .668-.25.668-.585 0-.334-.334-.668-.668-.668ZM35.5 35.5c-.334 0-.668-.084-.919-.25a2.035 2.035 0 0 1-1.002 0 1.992 1.992 0 0 1-.919-.502c-.334 0-.668-.083-.919-.25-.334-.167-.501-.418-.668-.669a1.99 1.99 0 0 1-.919-.5 1.991 1.991 0 0 1-.501-.92c-.25-.167-.501-.334-.668-.668-.167-.25-.25-.584-.25-.919a1.992 1.992 0 0 1-.502-.918 2.037 2.037 0 0 1 0-1.003c-.167-.25-.25-.584-.25-.919 0-.334.083-.668.25-.918a2.037 2.037 0 0 1 0-1.003c.084-.334.25-.668.501-.919 0-.334.084-.668.25-.918.168-.335.418-.502.669-.669.084-.334.25-.668.501-.918.25-.251.585-.418.919-.502.167-.25.334-.5.668-.668.25-.167.585-.25.919-.25.25-.251.585-.418.919-.502a2.037 2.037 0 0 1 1.002 0c.25-.167.585-.25.919-.25.334 0 .668.083.919.25a2.037 2.037 0 0 1 1.002 0c.334.084.668.25.919.502.334 0 .668.083.919.25.334.167.501.418.668.668.334.084.668.25.919.502.25.25.418.584.501.918.25.167.501.334.668.669.167.25.25.584.25.918.252.251.419.585.502.92.084.333.084.667 0 1.002.167.25.25.584.25.918 0 .335-.083.669-.25.92.084.333.084.667 0 1.002-.084.334-.25.668-.501.918 0 .335-.084.669-.25.92-.168.333-.418.5-.669.667-.084.334-.25.669-.501.92a1.99 1.99 0 0 1-.919.5c-.167.251-.334.502-.668.669-.25.167-.585.25-.919.25-.25.25-.585.418-.919.501a2.035 2.035 0 0 1-1.002 0c-.25.167-.585.251-.919.251Zm-.919-1.337c.167 0 .25.084.334.084.167.167.418.25.585.25a.902.902 0 0 0 .585-.25.532.532 0 0 1 .5 0 .714.714 0 0 0 .586 0c.25 0 .417-.167.5-.334a.402.402 0 0 1 .502-.167c.167 0 .418 0 .585-.167.167-.084.334-.25.417-.418 0-.167.167-.334.418-.334.167 0 .334-.084.501-.25.167-.168.25-.335.25-.502 0-.25.168-.417.335-.417.167-.084.334-.25.417-.418.168-.167.168-.418.168-.585a.402.402 0 0 1 .167-.5c.167-.084.334-.252.334-.502a.714.714 0 0 0 0-.585.533.533 0 0 1 0-.5.902.902 0 0 0 .25-.586.902.902 0 0 0-.25-.584.533.533 0 0 1 0-.502.714.714 0 0 0 0-.584c0-.25-.167-.418-.334-.501-.167-.084-.251-.334-.167-.502 0-.167 0-.417-.168-.584a1.007 1.007 0 0 0-.417-.418c-.167 0-.334-.167-.334-.418 0-.167-.084-.334-.25-.5-.168-.168-.335-.251-.502-.251-.25 0-.418-.167-.418-.335a1.007 1.007 0 0 0-.417-.417c-.167-.167-.418-.167-.585-.167a.402.402 0 0 1-.501-.167c-.084-.167-.25-.334-.501-.334a.713.713 0 0 0-.585 0 .533.533 0 0 1-.501 0 .902.902 0 0 0-.585-.25.902.902 0 0 0-.585.25.533.533 0 0 1-.5 0 .713.713 0 0 0-.586 0c-.25 0-.417.167-.5.334a.402.402 0 0 1-.502.167c-.167 0-.418 0-.585.167-.167.083-.334.25-.417.418 0 .167-.167.334-.418.334-.167 0-.334.083-.501.25-.167.167-.25.334-.25.501 0 .251-.168.418-.335.418-.167.084-.334.25-.418.418-.166.167-.166.417-.166.584a.402.402 0 0 1-.168.502c-.167.083-.334.25-.334.5a.714.714 0 0 0 0 .585.533.533 0 0 1 0 .502.902.902 0 0 0-.25.584c0 .167.083.418.25.585a.533.533 0 0 1 0 .501.714.714 0 0 0 0 .585c0 .25.167.418.334.501.168.084.251.334.168.501 0 .167 0 .418.167.585.083.167.25.334.417.418.167 0 .334.167.334.417 0 .167.084.334.25.502.168.166.335.25.502.25.25 0 .418.167.418.334.083.167.25.334.417.418.167.167.418.167.585.167a.402.402 0 0 1 .501.167c.084.167.25.334.501.334a.714.714 0 0 0 .585 0c.084-.084.167-.084.167-.084Z" fill="#fff"/><path fill-rule="evenodd" clip-rule="evenodd" d="M35.5 33.662c-3.09 0-5.68-2.589-5.68-5.68 0-3.09 2.59-5.68 5.68-5.68 1.504 0 2.923.585 4.01 1.671a5.625 5.625 0 0 1 1.67 4.01c0 3.09-2.59 5.68-5.68 5.68Zm0-10.274c-2.59 0-4.594 2.005-4.594 4.594 0 2.59 2.005 4.595 4.594 4.595 2.59 0 4.594-2.005 4.594-4.595 0-2.589-2.005-4.594-4.594-4.594Z" fill="#fff"/><path fill-rule="evenodd" clip-rule="evenodd" d="M33.078 30.906c-.084 0-.25-.084-.335-.167-.25-.167-.25-.501 0-.752l4.762-4.761c.25-.25.584-.25.752 0 .25.167.25.501 0 .752l-4.762 4.76c-.167.084-.25.168-.417.168ZM34.163 27.732a1.32 1.32 0 0 1-1.336-1.337 1.32 1.32 0 0 1 1.337-1.336c.751 0 1.42.584 1.42 1.336 0 .752-.669 1.337-1.42 1.337Zm0-1.67a.36.36 0 0 0-.334.333.36.36 0 0 0 .334.334c.251 0 .335-.167.335-.334s-.084-.334-.334-.334ZM36.837 30.906c-.752 0-1.42-.585-1.42-1.337 0-.751.668-1.336 1.42-1.336a1.32 1.32 0 0 1 1.336 1.336 1.32 1.32 0 0 1-1.337 1.337Zm0-1.67c-.251 0-.335.166-.335.333 0 .168.084.335.334.335a.36.36 0 0 0 .335-.335.36.36 0 0 0-.334-.334ZM31.574 42.099h-.083c-.251-.084-.418-.25-.418-.501l.167-2.673-2.339 1.42c-.167.167-.418.083-.584-.084-.168-.167-.251-.418-.084-.585l3.341-5.847c.167-.25.501-.334.668-.167.167.084.418.084.585.084a.402.402 0 0 1 .501.167c.084.167.25.334.501.334a.714.714 0 0 0 .585 0c.167-.084.418-.084.501 0 .167.167.334.25.502.25.25 0 .334.084.417.251a.533.533 0 0 1 0 .501l-3.759 6.6c-.083.166-.334.25-.5.25Zm.167-4.678c.084 0 .167.084.25.084.168.083.251.25.251.5l-.083 1.504 2.506-4.176-.084-.084a2.037 2.037 0 0 1-1.002 0 1.99 1.99 0 0 1-.919-.5h-.418l-2.088 3.591 1.337-.835c.083 0 .167-.084.25-.084Z" fill="#fff"/><path fill-rule="evenodd" clip-rule="evenodd" d="M39.426 42.099c-.167 0-.418-.084-.501-.25l-3.76-6.6a.533.533 0 0 1 0-.5.46.46 0 0 1 .419-.251c.167 0 .334-.084.5-.25a.532.532 0 0 1 .502 0 .714.714 0 0 0 .585 0c.25 0 .417-.168.5-.335a.402.402 0 0 1 .502-.167c.167 0 .418 0 .585-.084.25-.167.5-.083.668.167l3.341 5.764c.084.083.084.25.084.334 0 .25-.251.501-.502.501-.083 0-.167 0-.25-.083l-2.255-1.42.083 2.673c0 .25-.167.417-.418.5h-.083Zm-3.09-6.766 2.505 4.176-.083-1.503c0-.25.083-.418.25-.501a.533.533 0 0 1 .501 0l1.337.835-2.088-3.675c-.167.083-.335.083-.418.083a1.99 1.99 0 0 1-.919.501 2.037 2.037 0 0 1-1.002 0l-.084.084Z" fill="#fff"/></g><defs><clipPath id="a"><path fill="#fff" d="M0 0h71v71H0z"/></clipPath></defs></svg>