<svg width="426" height="172" fill="none" xmlns="http://www.w3.org/2000/svg"><path fill-rule="evenodd" clip-rule="evenodd" d="M386.065 10.323C386.065 4.622 381.443 0 375.742 0H49.548c-5.7 0-10.322 4.622-10.322 10.323v21.522c0 5.701-4.622 10.323-10.323 10.323h-18.58C4.622 42.168 0 46.789 0 52.49v21.523c0 5.7 4.622 10.322 10.323 10.322H25.29c5.701 0 10.323 4.622 10.323 10.323v17.084c0 5.701-4.622 10.323-10.323 10.323H10.323C4.622 122.065 0 126.686 0 132.387v29.29C0 167.378 4.622 172 10.323 172h298.322c5.701 0 10.323-4.622 10.323-10.323v-29.29c0-5.701-4.622-10.322-10.323-10.322h-46.968c-5.701 0-10.322-4.622-10.322-10.323V94.658c0-5.7 4.621-10.323 10.322-10.323h153.291c5.701 0 10.322-4.621 10.322-10.322V52.49c0-5.7-4.621-10.322-10.322-10.322h-18.581c-5.701 0-10.322-4.622-10.322-10.323V10.323Z" fill="#fff"/></svg>