<svg width="175" height="56" fill="none" xmlns="http://www.w3.org/2000/svg"><path d="M70.728 45.528c-10.224 0-17.472-7.728-17.472-17.328s7.248-17.328 17.472-17.328c6.192 0 11.616 3.168 14.4 8.064l-2.256 1.296c-2.208-4.128-6.864-6.912-12.144-6.912-8.832 0-14.928 6.624-14.928 14.88s6.096 14.88 14.928 14.88c5.328 0 10.032-2.832 12.24-7.056l2.256 1.296c-2.736 4.944-8.208 8.208-14.496 8.208Zm39.839-17.952c3.36 1.296 5.76 4.416 5.76 8.256A9.137 9.137 0 0 1 107.159 45H92.663V11.4h13.392c4.896 0 8.832 3.984 8.832 8.832 0 3.264-1.728 5.952-4.32 7.344ZM106.055 13.8H95.207v12.864h10.848c3.456 0 6.288-2.88 6.288-6.432 0-3.552-2.832-6.432-6.288-6.432Zm1.104 28.8c3.648 0 6.624-3.024 6.624-6.768 0-3.744-2.976-6.768-6.624-6.768H95.207V42.6h11.952Zm36.553-31.2v2.4h-10.56V45h-2.592V13.8H120v-2.4h23.712Zm18.865 13.776c5.473 0 9.937 4.464 9.937 9.888 0 5.472-4.464 9.936-9.937 9.936h-12.144V11.4h19.345v2.4h-16.801v11.376h9.6Zm0 17.424c4.033 0 7.345-3.36 7.345-7.536 0-4.128-3.312-7.488-7.345-7.488h-9.6V42.6h9.6ZM37.1.03c-5.774.505-10.508 2.06-14.621 4.8-1.766 1.183-2.672 1.928-4.285 3.54-2.472 2.463-4.457 5.22-6.07 8.418-.334.677-.63 1.221-.648 1.221-.144 0 1.26-3.235 2.06-4.752 1.738-3.264 3.551-5.64 5.86-7.645.592-.515.44-.439-.696.353-2.09 1.442-4.438 3.57-5.812 5.268-2.348 2.911-3.636 5.946-3.941 9.295-.22 2.338.305 5.097 1.422 7.435.572 1.202 2.08 3.416 3.158 4.647l.296.334-.048-.43c-.133-1.135-.152-2.977-.057-4.58.745-12.673 7.053-21.596 17.884-25.28C35.038 1.48 38.55.85 42.92.621c2.405-.124 2.415-.133.24-.42C42.07.058 38.053-.056 37.1.03Z" fill="#090154"/><path d="M33.119 8.088c-1.576.17-3.267.544-4.69 1.029-1.008.34-4.198 1.881-4.429 2.137-.019.026 1.22.046 2.758.046 2.844 0 3.805.046 6.12.302 4.7.511 9.264 1.79 12.742 3.573 6.409 3.277 9.207 6.205 9.88 13.325.048.577-.5-2.288-.5-2 .644-2.603-.66-3.355 0-5-2.5-5.5-6.228-8.22-14.675-11.196-.845-.295-1.498-.545-1.46-.545.327-.006 3.872 1.082 5.38 1.646 1.288.485 3.249 1.377 4.277 1.947.49.269 1.384.846 1.998 1.278 1.201.846 1.182.76-.086-.413-2.623-2.432-5.996-4.392-9.119-5.316-1.22-.36-2.844-.689-4.035-.807-1.192-.124-3.085-.124-4.161-.006ZM.243 11.138c-.162.572-.286 3.388-.229 4.934.296 7.768 2.825 14.315 7.53 19.516 2.748 3.034 6.69 5.802 10.85 7.615 1.222.525 1.384.63.659.42-1.355-.4-3.75-1.393-5.526-2.28-2.633-1.327-4.494-2.625-6.26-4.39-1.221-1.203-1.174-1.079.248.696 3.33 4.17 7.52 7.09 11.5 8.035 1.212.296 2.1.392 3.483.392 1.489 0 2.338-.105 3.674-.458 2.08-.544 3.655-1.346 5.678-2.892.907-.697 2.405-2.014 2.358-2.07-.029-.02-.65.028-1.384.104-1.727.191-5.344.2-7.1.01-6.375-.678-11.452-2.73-15.613-6.299C4.46 29.614 1.083 21.78.377 11.901c-.048-.639-.096-.916-.134-.763Z" fill="#090154"/><path d="M41.518 22.57c.162 1.146.124 5.536-.067 7.082-.506 4.17-1.441 7.453-3.035 10.64-2.538 5.058-6.756 9.047-12.082 11.443-4.084 1.832-8.617 2.825-14.524 3.168l-1.193.077.81.114c2.205.334 5.431.382 7.922.124 6.852-.706 12.778-3.369 17.359-7.778 2.414-2.328 4.027-4.437 5.821-7.615.382-.678.888-1.642 1.126-2.147.23-.506.401-.792.363-.63-.124.572-1.03 2.71-1.851 4.39-1.527 3.092-2.854 4.99-4.877 7.033-1.288 1.298-1.298 1.298-.63.84 4.352-3.016 7.72-7.072 9.057-10.946.649-1.861.782-2.691.782-4.944 0-1.746-.028-2.128-.22-2.996-.581-2.577-1.698-4.753-3.73-7.234-1.155-1.412-1.136-1.412-1.031-.62Z" fill="#090154"/></svg>